<svg xmlns="http://www.w3.org/2000/svg" width="16" height="16" viewBox="0 0 16 16">
  <defs>
    <style>
      .cls-1 {
        fill: #fad81b;
      }

      .cls-2 {
        fill: #fff;
        fill-rule: evenodd;
      }
    </style>
  </defs>
  <g id="グループ化_4" data-name="グループ化 4" transform="translate(-183 -532)">
    <rect id="長方形_1" data-name="長方形 1" class="cls-1" width="16" height="16" rx="3" transform="translate(183 532)"/>
    <path id="パス_1" data-name="パス 1" class="cls-2" d="M21.606,26V20.767a2.477,2.477,0,0,0-.784-1.717,2.529,2.529,0,0,0-1.717-.784h-.834V16.6l-2.5,2.5,2.5,2.5V19.933H19.1a.871.871,0,0,1,.575.258.786.786,0,0,1,.258.575V26a1.666,1.666,0,1,0,1.667,0Zm-.834,2.434a1,1,0,1,1,1-1A1.009,1.009,0,0,1,20.772,28.435Zm-5-9.336a1.666,1.666,0,1,0-2.5,1.434V26a1.666,1.666,0,1,0,1.667,0V20.533A1.657,1.657,0,0,0,15.771,19.1ZM15.1,27.435a1,1,0,1,1-1-1A1.009,1.009,0,0,1,15.1,27.435Zm-1-7.335a1,1,0,1,1,1-1A1.009,1.009,0,0,1,14.1,20.1Z" transform="translate(173.562 516.749)"/>
  </g>
</svg>
